<svg width="250" height="250" viewBox="0 0 250 250" fill="none" xmlns="http://www.w3.org/2000/svg">
    <rect width="250" height="250" rx="32" fill="white" />
    <path
        d="M18.6963 159.981C15.8763 163.202 11.9232 167.268 8.96716 171.398C12.5722 166.819 16.1303 162.882 18.6963 159.981ZM18.6963 159.981C21.4913 156.169 26.2274 151.999 29.0744 147.803C24.3114 153.455 21.9863 156.182 18.6963 159.981ZM13.5263 176.623C15.9043 175.33 17.8603 172.75 19.7933 170.818M13.7633 176.89C15.3513 175.426 16.7433 174.153 20.4533 170.583M15.3653 178.529C17.0813 176.109 18.6523 174.756 22.9814 171.091M15.3233 178.442C18.0393 175.734 21.2354 172.925 22.9234 170.441M19.7653 176.665C21.9654 174.251 24.7394 172.74 28.3765 167.856M20.1203 176.617C23.5744 172.979 27.2214 169.357 28.7255 167.934M79.2591 149.611C72.127 157.99 69.457 160.099 66.1619 164.725C70.552 159.741 74.42 154.073 79.2591 149.611ZM79.2591 149.611C82.0582 146.924 83.3582 143.787 87.7732 139.786C84.7212 143.376 82.1202 146.631 79.2591 149.611ZM114.238 159.073C115.233 158.437 115.713 157.904 117.514 156.314M114.312 159.099C115.175 158.398 115.868 157.74 117.326 156.545M117.248 159.129C117.853 158.785 118.449 158.193 120.379 156.561M117.141 159.193C117.939 158.723 118.745 157.917 120.189 156.733M119.438 160.39C122.037 157.883 123.84 155.657 128.636 151.715M119.051 159.95C123.243 156.726 126.696 153.556 129.328 151.649M121.975 160.653C125.26 157.445 127.393 155.326 132.575 150.629M122.365 160.265C124.852 158.133 127.086 156.055 132.408 150.971M132.576 154.146C133.342 153.053 134.255 152.747 136.066 150.59M132.469 153.957C133.932 152.834 135.26 151.578 136.372 150.704M144.739 143.712C145.44 142.942 146.104 142.172 146.847 141.565M144.555 143.546C145.253 143.071 145.842 142.469 146.832 141.627M134.247 154.668C136.373 153.455 138.659 150.758 145.366 145.854M134.277 154.661C138.767 150.938 143.179 146.835 145.771 144.854M136.532 155.508C139.554 153.118 142.605 149.786 145.061 148.359M136.375 155.792C139.713 153.509 142.316 150.561 144.962 148.817M138.296 156.684C140.01 154.888 141.65 153.972 143.88 152.159M138.473 156.482C140.204 155.337 141.394 154.195 143.921 152.018M138.656 126.285C139.058 125.676 139.249 125.293 139.736 124.545M138.731 126.188C139.124 125.604 139.518 124.942 139.775 124.493M140.193 126.829C140.645 126.108 141.087 125.078 141.543 124.443M140.065 126.995C140.485 126.355 140.759 125.696 141.602 124.309M141.554 127.623C141.755 126.687 142.405 125.889 143.42 124.478M141.319 127.845C141.901 126.846 142.284 125.997 143.502 124.304M134.085 143.251C134.205 142.92 134.414 142.624 134.613 142.351M134.052 143.204C134.198 143.003 134.274 142.851 134.573 142.332M142.364 129.552C142.74 128.342 143.514 127.274 144.908 125.169M142.232 129.379C142.802 128.39 143.38 127.377 144.68 124.999M135.859 143.071C136.325 142.367 136.762 141.401 137.283 140.617M135.932 143.125C136.327 142.521 136.649 141.771 137.474 140.579M143.756 130.304C144.959 128 145.793 126.545 148.282 122.776M143.289 130.114C144.71 127.803 146.455 125.503 148.235 122.229M137.859 143.138C138.747 141.124 139.601 139.752 140.979 137.644M137.582 142.9C138.356 141.649 139.348 140.498 140.626 137.787M144.572 130.562C146.652 128.158 147.83 126.41 151.26 120.117M144.937 130.704C146.928 127.377 149.025 124.017 150.684 120.502M140.254 142.945C144.47 136.206 147.022 129.407 153.854 118.488M140.201 142.271C143.804 134.837 148.824 127.34 153.269 118.791M141.683 143.715C148.39 131.828 154.654 119.819 156.825 114.515M140.923 142.983C145.249 135.315 149.859 128.52 157.952 115.347M146.099 139.103C148.829 133.212 151.528 129.746 156.482 119.217M145.723 138.631C149.833 132.007 153.454 125.764 157.306 119.145M147.382 139.684C150.1 134.738 152.686 128.602 155.579 125.176M146.436 139.894C149.853 134.089 153.611 128.809 155.242 124.844M-3 171.71C-2.627 170.919 -2.00399 170.448 -0.405965 168.666C-1.71598 170.288 -2.44599 170.942 -3 171.71ZM-2.942 174.388C-1.02097 172.241 0.165043 170.329 2.24707 168.299C1.04205 169.819 -1.11597 172.214 -2.942 174.388ZM-2.883 177.065C-0.399965 174.259 0.913052 172.315 5.54911 167.171C3.77209 169.106 0.348045 173.116 -2.883 177.065ZM-0.878972 177.46C3.00208 173.766 5.33911 169.915 12.7422 161.476C10.1932 165.24 4.02309 170.817 -0.878972 177.46ZM1.77406 177.093C7.44914 170.718 12.3812 163.751 16.0433 160.348C8.77616 168.977 4.85411 173.393 1.77406 177.093ZM19.4033 161.897C23.0913 157.705 27.3354 152.958 32.3755 146.675C26.6644 153.407 22.5383 157.746 19.4033 161.897ZM20.1103 163.814C25.9614 156.475 34.0465 147.728 36.3255 144.785C28.7944 154.007 24.4314 159.333 20.1103 163.814ZM27.3044 158.119C32.8735 153.183 37.9375 147.327 40.2766 142.896C34.5215 149.846 30.7915 153.826 27.3044 158.119ZM30.6054 156.991C34.2935 153.078 35.3725 150.659 44.2266 141.007C39.5346 146.198 34.9325 151.805 30.6054 156.991ZM33.9075 155.863C38.7166 149.05 44.4406 144.011 47.5277 139.879C43.0516 145.678 38.2585 150.513 33.9075 155.863ZM50.7397 134.159C53.0208 131.003 55.7678 128 58.5978 125.089C57.1658 127.318 54.1088 130.392 50.7397 134.159ZM49.6157 138.478C55.5108 131.361 60.0599 126.434 66.6429 118.828C62.3659 123.371 56.6898 130.755 49.6157 138.478ZM55.0408 135.24C58.7658 130.878 60.5469 128.37 70.104 117.857C64.5319 124.624 59.4029 129.58 55.0408 135.24ZM60.4669 132.002C64.6069 128.075 66.8189 123.508 73.564 116.887C70.346 120.448 65.5889 126.402 60.4669 132.002ZM49.5197 147.657C50.5027 146.264 52.1228 144.615 54.1038 142.367C52.7188 144.156 51.0007 145.748 49.5197 147.657ZM65.8919 128.763C76.3231 115.698 87.8442 104.42 96.0173 94C79.1481 113.131 72.218 120.53 65.8919 128.763ZM52.9798 146.686C56.0018 143.984 59.2859 139.164 64.1129 133.839C61.3179 137.3 57.3828 142.203 52.9798 146.686ZM66.0779 131.572C73.203 122.452 81.3831 113.719 96.2033 96.808C78.4181 117.58 72.001 124.915 66.0779 131.572ZM66.2639 134.38C75.8211 124.117 83.9132 112.909 96.3893 99.6161C78.5631 120.342 72.129 127.63 66.2639 134.38ZM69.07 134.165C77.9811 125.03 86.9512 114.704 95.9213 103.179C89.0772 111.826 79.1411 122.925 69.07 134.165ZM35.2015 176.27C37.8896 173.959 40.6256 170.399 43.7146 166.446C41.1426 169.299 38.1076 173.097 35.2015 176.27ZM71.876 133.95C79.6001 125.29 85.5852 116.491 94.7973 107.498C85.7002 118.358 78.6341 126.402 71.876 133.95ZM39.9716 173.788C42.5636 170.916 44.7717 168.47 47.1757 165.475C43.9746 169.21 41.9406 171.461 39.9716 173.788ZM74.6821 133.735C79.9731 126.813 87.7732 119.74 92.3643 113.329C86.7312 119.928 80.3711 126.619 74.6821 133.735ZM44.7427 171.306C45.7347 170.15 47.0087 168.862 49.3267 166.016C47.9287 167.613 46.3777 169.33 44.7427 171.306ZM58.4948 155.435C60.5019 152.83 63.0799 150.146 65.0439 147.878C62.3449 151.508 60.3949 153.195 58.4948 155.435ZM77.4871 133.519C82.0712 128.59 84.4762 124.445 93.2053 115.381C88.8622 121.075 83.0452 127.56 77.4871 133.519ZM47.5487 171.091C49.3717 169.262 50.7907 167.434 51.4777 166.556C49.9477 168.369 48.9237 169.784 47.5487 171.091ZM61.3009 155.22C64.2489 151.866 68.111 148.413 71.779 143.129C66.0479 150.259 63.7069 152.397 61.3009 155.22ZM80.9481 132.549C83.6862 127.404 87.4822 123.798 94.0463 117.433C88.0452 125.1 84.3852 128.669 80.9481 132.549ZM49.6987 171.631C50.8727 170.04 52.7898 168.462 54.2838 166.341C52.5428 168.436 51.1157 169.917 49.6987 171.631ZM64.7619 154.25C74.9271 142.546 84.7832 131.233 94.8873 119.485C78.0661 138.257 71.505 146.934 64.7619 154.25ZM43.9916 181.241C44.1386 181.061 44.2997 180.905 44.6457 180.485C44.3697 180.809 44.2006 181.023 43.9916 181.241ZM52.5048 171.416C53.3248 170.057 54.8658 169.241 57.0888 166.126C54.3398 169.339 53.4208 170.451 52.5048 171.416ZM68.223 153.279C77.8831 142.089 87.3712 130.396 94.4183 123.049C80.8931 138.431 74.6661 145.441 68.223 153.279ZM46.1417 181.781C46.6217 181.056 47.1677 180.688 48.1067 179.514C47.6097 180.133 46.9197 180.908 46.1417 181.781ZM54.6558 171.957C56.4988 170.058 58.2368 168.281 59.8949 165.911C58.9668 167.161 56.7618 169.765 54.6558 171.957ZM71.028 153.064C77.3391 144.263 84.9672 136.44 94.6043 125.857C81.6361 140.755 76.2811 147.349 71.028 153.064ZM48.2927 182.322C49.6377 180.705 50.9257 179.651 52.2228 177.788C50.5877 179.519 49.5447 180.894 48.2927 182.322ZM55.4968 174.009C57.7688 170.479 61.1619 167.771 62.7009 165.696C59.1938 170.127 57.4268 172.162 55.4968 174.009ZM64.0109 164.185C70.707 155.971 78.0061 148.463 89.5513 134.711C75.3861 151.263 69.684 157.163 64.0109 164.185ZM50.4437 182.863C51.9368 180.463 53.7968 179.183 57.6478 174.55C54.4818 178.328 52.2448 180.667 50.4437 182.863ZM59.6129 172.282C61.5029 170.448 63.2619 168.256 64.1969 166.992C62.8149 168.566 61.1679 170.543 59.6129 172.282ZM53.9048 181.892C55.7868 180.051 57.6428 177.235 59.1438 175.846C56.8948 178.369 55.2058 180.208 53.9048 181.892ZM60.4539 174.334C64.7769 168.306 69.721 161.965 80.7551 150.907C71.25 162.072 66.1189 167.996 60.4539 174.334ZM58.0198 180.165C66.582 170.956 73.9921 162.366 82.2512 152.203C70.438 166.176 63.6809 173.451 58.0198 180.165ZM60.1709 180.706C65.0439 175.073 68.99 170.59 76.5431 161.813C68.047 171.055 64.3679 176.332 60.1709 180.706ZM64.9419 178.224C67.892 174.808 70.341 171.805 72.145 169.911C68.018 174.564 66.4209 176.68 64.9419 178.224Z"
        stroke="#545454" stroke-width="0.2" stroke-linecap="round" />
    <path
        d="M2 169.467C5.6625 168.272 13.8221 164.626 17.1606 159.606L24.2919 157.602L32.0571 145.579L46.7952 138.25L53.2926 135.877L60.5295 122.852H65.7063L71.4642 116.893L79.0709 114.942L100.095 90L112.139 104.659C114.727 104.044 121.595 106.094 128.356 119.213C130.874 119.284 136.343 120.416 138.076 124.381L148.324 122.747L162.586 111.673L179.015 130.814C183.857 131.412 194.968 134.179 200.673 140.464C207.804 148.321 208.966 150.22 213.245 152.382C216.668 154.111 221.01 159.958 222.754 162.665L234.586 163.086L247 173"
        stroke="black" stroke-width="4" />
    <path
        d="M34.9207 161.22L39.8831 154.879M41.7308 151.021L49.8079 138.126M98.5346 94V102.825C97.514 103.583 95.4305 106.366 95.2616 111.439C95.0504 117.781 98.1123 116.301 97.6372 122.22C97.1621 128.139 91.6717 131.309 90.3519 137.281C89.2961 142.058 83.401 147.374 80.5855 149.435L86.0758 152.818C82.9083 156.851 75.982 166.156 73.617 171.102C71.2519 176.049 64.396 179.082 61.2637 179.98M98.1123 131.309C98.6754 132.789 100.646 136.055 104.025 137.281M105.873 141.033L107.404 143.252M114.583 131.309L125.986 144.415M127.517 146.318L129.259 147.956M129.259 141.931L131.054 143.781M131.054 132.789L133.852 138.126M125.142 119.842L129.259 129.988M108.723 105.996L110.73 111.439C111.768 111.756 114.14 113.204 115.322 116.46M117.381 118.838L117.962 120.317M160.037 113.976L157.028 130.728L149.795 139.342L145.466 155.09M145.466 155.09L131.688 161.062L117.381 168.988M145.466 155.09L147.261 162.858L148.792 169.675L153.491 175.383L160.037 177.814L167.005 183.574L171.704 188.7M167.005 135.907L169.17 137.281M168.378 150.492L170.806 152.818H173.763L176.508 157.468M179.411 157.468L180.784 158.842M176.508 164.814L180.784 166.769M183.635 171.948L185.588 172.741M176.508 132.789L180.098 139.342L184.585 144.415L187.647 148.854M189.97 150.492L191.659 152.818M196.622 157.468L203.96 165.765M210.822 173.903L215.204 177.814H219.533L222.859 180.932M224.971 184.578L227.452 186.533M219.533 164.814L226.66 169.675L228.138 174.484L235.951 178.712L238.696 182.887M240.227 182.887L241.6 185.159M21.9867 159.529L17.9746 165.395L12.801 168.46L9 174.379"
        stroke="black" stroke-width="1.5" stroke-linecap="round" stroke-linejoin="round" />
</svg>